<?xml version="1.0" standalone="no"?>
<!DOCTYPE svg PUBLIC "-//W3C//DTD SVG 20010904//EN"
 "http://www.w3.org/TR/2001/REC-SVG-20010904/DTD/svg10.dtd">
<svg version="1.0" xmlns="http://www.w3.org/2000/svg"
 width="640.000000pt" height="1280.000000pt" viewBox="0 0 640.000000 1280.000000"
 preserveAspectRatio="xMidYMid meet">
<metadata>
Created by potrace 1.15, written by Peter Selinger 2001-2017
</metadata>
<g transform="translate(0.000000,1280.000000) scale(0.100000,-0.100000)"
fill="#000000" stroke="none">
<path d="M2517 12727 c-229 -310 -426 -755 -526 -1192 -56 -242 -76 -393 -93
-682 -27 -479 43 -925 315 -2011 l73 -293 -64 -112 c-256 -448 -607 -1122
-759 -1462 -339 -754 -474 -1272 -434 -1665 42 -403 110 -755 192 -1001 214
-636 584 -988 1169 -1113 171 -36 290 -48 514 -48 287 0 516 24 784 83 78 18
145 30 148 27 8 -9 179 -608 229 -803 71 -282 79 -419 35 -647 -51 -265 -195
-553 -392 -785 -84 -100 -152 -162 -278 -258 -52 -40 -133 -105 -180 -144 -47
-40 -124 -98 -172 -130 -195 -132 -369 -152 -571 -66 -74 31 -217 112 -217
122 0 6 39 -2 210 -45 128 -32 160 -36 275 -37 120 0 134 2 185 26 189 89 284
345 285 764 0 185 -13 254 -77 410 -109 265 -316 479 -535 553 -194 67 -375
45 -561 -67 -115 -69 -194 -134 -318 -264 -341 -356 -556 -852 -490 -1131 28
-117 88 -218 196 -327 111 -112 209 -181 364 -254 231 -110 440 -160 711 -171
169 -7 261 7 394 61 213 85 411 225 637 450 167 166 275 298 399 485 201 302
328 601 376 880 19 110 16 308 -5 410 -26 128 -116 472 -201 770 -41 145 -75
267 -75 271 0 3 42 23 92 44 299 121 567 300 774 518 130 136 219 263 299 422
113 229 149 374 149 605 0 182 -17 265 -88 439 -264 643 -691 1032 -1249 1135
-243 46 -653 31 -856 -30 -25 -7 -49 -10 -52 -6 -6 6 -117 392 -313 1090 l-24
82 102 128 c576 725 838 1194 895 1606 28 201 -1 649 -69 1044 -105 615 -325
1377 -597 2064 l-66 167 -231 77 c-127 42 -236 79 -243 81 -6 3 -36 -29 -66
-70z m539 -1277 c198 -429 287 -710 287 -910 1 -122 -9 -151 -137 -395 -111
-211 -725 -1269 -733 -1262 -6 6 -81 350 -122 557 -85 435 -123 786 -102 953
29 228 111 552 187 735 109 264 251 475 402 598 l55 45 48 -88 c27 -48 79
-153 115 -233z m-372 -4333 c43 -149 109 -377 147 -506 38 -129 69 -239 69
-245 0 -6 -34 -31 -75 -55 -264 -156 -572 -462 -743 -737 -65 -105 -143 -260
-176 -352 -48 -134 -61 -208 -61 -347 1 -153 19 -217 91 -327 134 -201 429
-346 844 -417 171 -29 407 -43 521 -31 51 5 97 10 102 10 4 0 7 4 7 9 0 5 -24
17 -52 27 -360 117 -726 336 -874 523 -101 127 -138 231 -137 391 1 231 82
443 263 685 113 151 362 379 375 343 3 -7 50 -164 105 -348 111 -369 248 -823
372 -1230 83 -276 183 -606 270 -893 27 -92 48 -170 46 -172 -10 -10 -164 -45
-246 -56 -128 -17 -439 -6 -578 20 -525 98 -960 354 -1238 726 -256 341 -394
804 -347 1159 55 412 294 881 768 1507 166 220 455 587 463 588 3 1 40 -122
84 -272z m888 -921 c194 -10 406 -68 581 -158 297 -152 500 -397 605 -728 210
-660 -22 -1282 -628 -1684 -62 -42 -119 -76 -125 -76 -7 0 -143 436 -333 1073
-470 1570 -466 1556 -459 1563 7 7 190 21 232 17 17 -1 74 -4 127 -7z"/>
</g>
</svg>
